<svg width="674" height="406" viewBox="0 0 674 406" fill="none" xmlns="http://www.w3.org/2000/svg">
<path fill-rule="evenodd" clip-rule="evenodd" d="M362.975 308.728C372.058 306.776 371.612 299.03 400.863 299.03C406.082 299.03 416.467 302.865 422.797 304.273C434.898 306.965 457.317 317.144 457.317 317.144C457.317 317.144 467.309 323.185 483.285 323.49C499.262 323.795 507.952 319.447 524.826 319.447C537.131 319.447 547.813 323.49 558.355 323.49C568.896 323.49 583.464 322.146 583.961 314.033C590.659 204.735 554.674 159.432 529.977 120.948C490.816 59.9255 501.618 -32.6148 452.125 12.4717C439.571 23.9086 438.068 33.3418 415.857 45.5683C398.176 55.301 384.403 57.2336 375.028 63.1849C349.076 79.6597 335.445 102.613 317.389 113.595C285.859 132.773 275.517 125.001 250.591 138.123C247.301 139.855 243.652 142.299 239.592 143.939C231.517 147.201 222.316 149.842 214.585 155.291C208.337 159.695 198.73 172.384 198.73 172.384L139.51 193.011C139.51 193.011 126.356 199.122 131.858 220.927C137.361 242.732 154.674 290.979 154.674 290.979C154.674 290.979 171.162 290.743 184.986 299.03C198.811 307.316 203.341 325.433 203.341 325.433C203.341 325.433 236.503 315.421 250.591 310.514C254.459 309.167 263.211 305.765 276.588 305.128C291.252 304.429 302.307 311.694 323.626 312.753C335.604 313.348 353.893 310.68 362.975 308.728Z" fill="#B1E8FF"/>
<path fill-rule="evenodd" clip-rule="evenodd" d="M595.255 241.327C594.753 240.08 592.629 240.659 592.226 241.942C591.84 243.171 592.421 244.46 592.955 245.644L593.025 245.798C598.628 258.258 594.168 274.408 582.964 282.225C581.613 281.4 580.644 280.102 579.679 278.81C578.602 277.369 577.531 275.935 575.941 275.168C574.55 274.498 572.955 274.443 571.412 274.401L557.656 274.025C555.983 273.979 553.969 274.116 553.157 275.58C551.386 278.769 546.652 280.042 543.785 277.786C540.918 275.53 541.409 270.137 544.805 268.805C545.057 268.706 545.32 268.627 545.582 268.549L545.582 268.549C546.155 268.377 546.725 268.206 547.179 267.828C547.773 267.333 548.06 266.57 548.323 265.843L553.66 251.061C553.995 250.132 554.335 249.177 554.311 248.19C554.263 246.179 552.744 244.525 551.185 243.253C550.938 243.051 550.685 242.852 550.432 242.651C549.09 241.59 547.728 240.513 546.989 238.991C546.11 237.181 546.625 234.502 548.551 233.921C558.656 230.874 570.015 228.94 579.422 233.724C579.685 233.858 579.948 233.997 580.212 234.137L580.212 234.137C581.562 234.853 582.934 235.58 584.444 235.622C586.25 235.673 588.247 234.195 587.918 232.419C587.707 231.284 586.687 230.447 585.709 229.645C584.533 228.681 583.42 227.768 583.846 226.448C584.014 225.926 584.418 225.52 584.808 225.134L596.78 213.302C597.194 211.064 593.94 209.842 591.844 210.728C590.806 211.167 589.912 211.867 589.018 212.567C588.108 213.281 587.197 213.994 586.134 214.43C581.877 216.177 577.319 212.945 573.949 209.812C561.887 198.598 551.189 185.917 542.167 172.139C541.753 171.506 541.325 170.811 541.38 170.057C541.45 169.089 542.276 168.373 543.038 167.771L562.944 152.051C564.547 150.785 567.056 149.576 568.376 151.135L605.034 194.428C605.617 195.117 606.219 195.845 606.4 196.728C606.772 198.544 605.258 200.186 603.724 201.227C603.485 201.389 603.24 201.548 602.994 201.709L602.993 201.709C601.657 202.578 600.283 203.472 599.69 204.921C598.988 206.636 600.519 209.165 602.234 208.462C611.015 202.154 620.194 195.675 630.842 193.803C632.856 193.449 635.046 193.293 636.84 194.278C640.83 196.469 640.268 202.345 638.751 206.637C635.984 214.468 631.882 221.826 626.674 228.297C625.637 229.586 624.485 231.135 624.923 232.73C625.542 234.986 628.674 235.263 630.915 234.595C631.27 234.489 631.63 234.372 631.993 234.253L631.993 234.253L631.993 234.253C633.925 233.624 635.942 232.967 637.698 233.857C638.621 234.324 639.295 235.157 639.94 235.965L672.661 276.936C665.126 282.862 657.455 288.616 649.657 294.192C648.887 294.743 648.027 295.318 647.083 295.24C645.966 295.148 645.148 294.185 644.462 293.298L613.082 252.702C611.744 250.971 613.004 248.382 614.727 247.033C615.35 246.546 616.034 246.129 616.716 245.712C617.921 244.978 619.12 244.246 619.968 243.136C621.297 241.398 620.944 238.156 618.781 237.827C617.551 237.64 616.421 238.496 615.532 239.367C614.837 240.047 614.176 240.776 613.515 241.505C611.813 243.38 610.112 245.254 607.841 246.307C603.262 248.43 597.142 246.008 595.255 241.327ZM551.29 266.549C551.23 266.705 551.168 266.867 551.171 267.034C551.179 267.514 551.728 267.836 552.205 267.786C552.682 267.737 553.089 267.434 553.469 267.142L563.605 259.354C564.133 258.948 564.711 258.444 564.708 257.779C564.706 257.259 564.342 256.82 563.998 256.431L559.544 251.384C559.312 251.121 559.062 250.846 558.727 250.743C557.81 250.461 557.103 251.546 556.757 252.441L551.29 266.549ZM567.639 261.695C567.931 261.81 568.147 262.057 568.351 262.296L574.4 269.385C574.552 269.956 573.734 270.242 573.144 270.253L556.992 270.567C556.201 270.582 555.367 270.587 554.674 270.205C557.719 266.443 561.79 263.519 566.327 261.834C566.749 261.677 567.22 261.531 567.639 261.695Z" fill="white"/>
<path fill-rule="evenodd" clip-rule="evenodd" d="M244.778 240.014C245.097 235.339 248.533 231.033 253.021 229.683C255.717 228.872 257.595 226.283 258.264 223.548C258.933 220.813 258.582 217.937 258.065 215.169C256.412 206.332 252.591 197.211 244.901 192.554C236.563 187.505 225.815 188.952 216.625 192.205C212.62 193.622 208.457 195.579 206.353 199.27C205.059 201.541 204.704 204.209 204.373 206.801C203.697 212.102 203.019 217.454 203.508 222.776C203.996 228.097 205.755 233.461 209.386 237.382C211.915 240.112 215.79 242.104 219.328 240.95C222.101 240.046 224.645 242.623 227.271 243.893C230.855 245.627 235.086 244.909 238.995 244.154C241.51 243.669 244.603 242.569 244.778 240.014Z" fill="white"/>
<path fill-rule="evenodd" clip-rule="evenodd" d="M338.498 310.731C347.581 309.798 356.663 308.865 365.745 307.933C364.124 310.413 360.86 311.112 357.93 311.558C340.702 314.181 322.811 315.342 306.081 310.462C288.549 305.347 269.51 305.528 252.078 310.975C252.217 308.796 254.657 307.628 256.749 307.002C270.84 302.787 286.091 302.519 300.322 306.236C306.619 307.88 312.744 310.291 319.192 311.173C325.586 312.048 332.079 311.39 338.498 310.731Z" fill="#00160A"/>
<path fill-rule="evenodd" clip-rule="evenodd" d="M267.236 129.328C276.139 127.073 285.579 127.002 294.185 123.794C294.642 124.145 295.099 124.497 295.556 124.848C291.528 128.755 285.284 128.797 279.692 129.268C269.062 130.162 258.644 133.502 249.475 138.955C245.076 141.571 240.839 144.718 235.857 145.893C223.985 148.693 213.058 155.363 205.141 164.643C204.607 163.713 203.711 162.996 202.685 162.679C208.98 157.12 215.913 152.287 223.306 148.304C227.778 145.895 232.41 143.799 237.038 141.706C240.929 139.946 244.82 138.186 248.711 136.426C254.744 133.696 260.816 130.953 267.236 129.328Z" fill="#00160A"/>
<path fill-rule="evenodd" clip-rule="evenodd" d="M441.021 25.1722C439.468 27.2933 438.014 29.4979 436.245 31.4427C433.905 34.0156 431.066 36.0764 428.228 38.0879C419.651 44.1685 410.797 50.0263 401.009 53.8642C396.449 55.6521 391.721 56.9872 387.173 58.804C372.92 64.4967 360.891 74.7483 350.751 86.2684C349.962 87.1645 349.12 88.1112 347.976 88.4536C346.833 88.796 345.33 88.2172 345.159 87.0358C357.083 75.713 369.339 64.1663 384.42 57.6111C391.139 54.6908 398.282 52.8285 404.97 49.8387C411.622 46.8647 417.733 42.8162 423.717 38.6578C427.698 35.8915 431.667 33.0425 434.982 29.5052C440.2 23.9367 443.777 16.6952 450.132 12.4701C450.903 11.9574 452.256 11.6929 452.485 12.5899C448.23 16.3596 444.38 20.5857 441.021 25.1722Z" fill="#00160A"/>
<path fill-rule="evenodd" clip-rule="evenodd" d="M141.432 70.5286C143.073 73.7365 146.028 76.2465 149.46 77.3455C149.445 77.7457 149.43 78.1458 149.415 78.546C146.462 80.332 144.873 84.1148 145.664 87.4741C145.908 88.5081 144.429 89.2376 143.469 88.7826C142.509 88.3275 142.026 87.2667 141.574 86.3054C141.006 85.099 140.352 83.8999 139.367 83.0008C138.382 82.1017 137.008 81.539 135.703 81.8138C134.747 82.0151 133.872 80.9975 133.889 80.0207C133.905 79.0439 134.538 78.1873 135.236 77.5038C135.934 76.8204 136.736 76.219 137.255 75.3913C137.862 74.4231 138.019 73.2441 138.083 72.1032C138.123 71.3919 138.139 70.6522 138.46 70.0162C138.781 69.3802 139.516 68.8861 140.196 69.0983C140.815 69.2915 141.137 69.9512 141.432 70.5286L141.432 70.5286Z" fill="#00160A"/>
<path fill-rule="evenodd" clip-rule="evenodd" d="M499.617 324.322C486.875 326.046 473.729 324.713 461.593 320.467C459.505 319.736 457.041 318.282 457.343 316.091C469.218 321.281 482.455 323.32 495.342 321.944C503.927 321.027 512.34 318.631 520.968 318.304C530.736 317.933 540.38 320.223 550.065 321.55C559.75 322.877 570.006 323.164 578.879 319.062C579.708 318.678 580.601 318.247 581.495 318.435C582.389 318.622 583.084 319.795 582.474 320.474C582.289 320.681 582.026 320.798 581.77 320.907C574.646 323.942 566.874 325.446 559.132 325.287C546.702 325.032 534.571 320.569 522.146 320.982C514.552 321.234 507.146 323.303 499.617 324.322Z" fill="#00160A"/>
<path fill-rule="evenodd" clip-rule="evenodd" d="M540.936 103.585C541.074 104.762 541.363 106.408 540.225 106.734C539.163 107.038 538.487 105.673 538.042 104.662C536.845 101.942 533.998 100.031 531.028 99.9524C529.852 99.9212 529.654 98.0631 530.48 97.2256C531.306 96.3881 532.564 96.1883 533.61 95.6498C535.24 94.8106 536.316 93.1412 536.846 91.3861C537.376 89.6311 537.427 87.7725 537.475 85.9399C537.486 85.4761 538.015 85.1579 538.476 85.2183C538.936 85.2786 539.315 85.6063 539.617 85.9583C541.689 88.3705 541.421 92.3039 543.793 94.4216C544.895 95.4055 546.457 95.8694 547.31 97.0757C546.644 97.8722 545.465 97.9138 544.471 98.2118C542.24 98.8801 540.667 101.273 540.936 103.585H540.936Z" fill="#00160A"/>
<path fill-rule="evenodd" clip-rule="evenodd" d="M201.414 95.5383C203.067 96.7595 203.931 98.7575 205.272 100.315C206.693 101.965 208.684 103.114 210.824 103.519C207.795 105.187 205.809 108.594 205.85 112.052C205.859 112.868 205.737 113.987 204.924 114.058C204.714 114.077 204.507 114.007 204.313 113.926C201.127 112.584 199.821 107.972 196.387 107.571C195.176 107.43 194.962 105.623 195.664 104.626C196.366 103.629 197.548 103.071 198.318 102.126C199.873 100.219 199.505 97.0897 201.414 95.5383Z" fill="#00160A"/>
<path fill-rule="evenodd" clip-rule="evenodd" d="M279.641 53.2224C278.884 53.6743 277.879 53.1969 277.326 52.5092C276.774 51.8216 276.49 50.9533 275.962 50.2473C274.601 48.4285 271.875 47.9771 270.675 46.0488C270.293 45.4362 270.138 44.5553 270.65 44.0468C270.854 43.8443 271.13 43.7366 271.387 43.6074C273.218 42.6859 274.139 40.5962 274.592 38.5968C275.045 36.5973 275.189 34.4904 276.104 32.6558C276.332 32.1992 276.637 31.7377 277.112 31.551C277.587 31.3643 278.248 31.6034 278.321 32.1084C278.586 33.9472 278.852 35.786 279.117 37.6248C279.271 38.6888 279.438 39.7906 280.024 40.6918C280.61 41.593 281.741 42.2353 282.766 41.9119C283.479 41.6869 284.05 42.6932 283.793 43.3955C283.537 44.0979 282.855 44.5318 282.295 45.0277C280.901 46.2634 280.128 48.1684 280.267 50.0264C280.353 51.175 280.63 52.6322 279.641 53.2224Z" fill="#00160A"/>
<path fill-rule="evenodd" clip-rule="evenodd" d="M156.91 189.568C157.743 189.086 158.564 190.544 158.01 191.33C157.456 192.116 156.375 192.262 155.426 192.416C149.398 193.395 144.202 197.432 140.587 202.354C138.693 204.932 137.109 208.028 137.532 211.199C137.761 212.921 138.427 215.05 137.053 216.113C135.452 214.407 134.526 212.084 134.516 209.745C134.497 205.617 137.148 201.994 139.879 198.899C143.016 195.344 146.809 191.836 151.523 191.329C153.416 191.126 155.264 190.522 156.91 189.568Z" fill="#00160A"/>
<path fill-rule="evenodd" clip-rule="evenodd" d="M457.699 350.17C459.839 348.409 461.284 345.824 461.663 343.079C461.806 342.044 463.474 341.999 464.105 342.831C464.736 343.664 464.651 344.812 464.619 345.856C464.576 347.216 464.692 348.639 465.385 349.81C466.078 350.981 467.483 351.82 468.803 351.486C469.321 351.354 469.807 351.932 469.769 352.466C469.73 353 469.342 353.441 468.929 353.781C467.315 355.103 464.898 355.691 464.136 357.634C463.868 358.319 463.86 359.074 463.722 359.797C463.583 360.52 463.257 361.278 462.597 361.605C461.938 361.932 460.94 361.529 460.938 360.793C460.93 358.229 459.65 355.7 457.589 354.174C456.992 353.732 456.277 353.286 456.145 352.555C455.966 351.571 456.927 350.805 457.699 350.17L457.699 350.17Z" fill="#00160A"/>
<path fill-rule="evenodd" clip-rule="evenodd" d="M160.312 212.078C162.93 214.043 166.133 215.218 169.401 215.414C170.146 215.458 170.094 216.581 169.8 217.267C168.959 219.227 168.119 221.187 167.279 223.147C167.749 223.831 168.242 224.623 168.059 225.433C167.876 226.242 166.583 226.678 166.227 225.929C164.848 223.029 161.37 221.298 158.226 221.946C158.384 220.836 158.994 219.854 159.451 218.831C160.389 216.729 160.693 214.348 160.312 212.078Z" fill="#00160A"/>
<path fill-rule="evenodd" clip-rule="evenodd" d="M322.669 291.369C321.565 288.661 318.755 286.739 315.831 286.693C315.031 283.846 318.472 281.495 318.778 278.555C318.842 277.944 318.767 277.317 318.924 276.724C319.081 276.13 319.578 275.554 320.19 275.595C321.043 277.673 322.578 279.464 324.5 280.625C324.999 280.926 325.543 281.203 325.878 281.681C326.213 282.158 326.239 282.917 325.759 283.249C323.29 284.958 322.867 288.373 322.669 291.369Z" fill="#00160A"/>
<path fill-rule="evenodd" clip-rule="evenodd" d="M215.552 271.118C215.956 270.922 216.425 270.862 216.865 270.95C217.21 273.936 219.461 276.613 222.343 277.466C221.052 280.066 220.331 282.947 220.246 285.848C219.958 286.081 219.541 285.828 219.264 285.582C217.052 283.626 214.84 281.67 212.628 279.714C214.765 277.441 215.86 274.223 215.552 271.118Z" fill="#00160A"/>
<path fill-rule="evenodd" clip-rule="evenodd" d="M510.879 245.072C510.515 244.862 510.116 244.66 509.697 244.691C509.32 244.72 508.973 244.936 508.596 244.944C508.218 244.951 507.797 244.55 508.008 244.237C511.634 242.31 513.106 237.966 514.261 234.026C514.45 233.675 515.029 233.773 515.256 234.101C515.482 234.429 515.468 234.86 515.47 235.259C515.48 236.988 515.987 238.749 517.087 240.084C518.187 241.419 519.917 242.275 521.64 242.123C519.026 243.924 516.175 246.1 515.783 249.251C514.422 247.573 512.751 246.149 510.879 245.072H510.879Z" fill="#00160A"/>
<path fill-rule="evenodd" clip-rule="evenodd" d="M225.344 309.837C230.254 307.859 235.355 305.748 238.839 301.762C239.26 301.28 239.697 300.745 240.317 300.584C240.937 300.423 241.743 300.903 241.617 301.531C241.005 304.59 237.93 306.408 235.158 307.84C233.472 308.711 231.787 309.582 230.101 310.453C229.267 310.884 228.394 311.325 227.455 311.332C226.516 311.339 225.502 310.763 225.344 309.837L225.344 309.837Z" fill="#00160A"/>
<path fill-rule="evenodd" clip-rule="evenodd" d="M418.014 304.442C418.663 303.466 420.067 303.45 421.232 303.571C426.704 304.139 432.104 305.395 437.265 307.3C441.403 308.827 445.401 310.779 449.017 313.306C445.293 313.572 441.795 311.733 438.345 310.305C433.619 308.349 428.635 307.1 423.673 305.858C421.787 305.386 419.901 304.914 418.014 304.442Z" fill="#00160A"/>
<path fill-rule="evenodd" clip-rule="evenodd" d="M148.493 258.123C147.257 255.112 146.113 252.063 145.065 248.982C144.807 248.224 144.555 247.465 144.303 246.705C142.202 240.372 140.1 234.037 138.238 227.63C138.021 226.883 138.246 225.662 138.987 225.902C139.291 226 139.441 226.333 139.557 226.631C141.991 232.912 144.426 239.194 146.86 245.476C148.499 249.703 150.165 254.1 149.868 258.624C149.845 258.964 149.369 259.107 149.071 258.942C148.773 258.776 148.622 258.438 148.493 258.123Z" fill="#00160A"/>
<path fill-rule="evenodd" clip-rule="evenodd" d="M241.773 286.302C242.028 287.385 241.769 289.065 240.674 288.868C237.372 276.951 234.237 264.988 231.269 252.983C231.169 252.58 231.071 252.146 231.215 251.756C231.36 251.367 231.857 251.082 232.205 251.31C232.38 251.423 232.47 251.628 232.549 251.821C235.135 258.129 236.708 264.798 238.271 271.434C239.438 276.39 240.606 281.346 241.773 286.302Z" fill="#00160A"/>
<path fill-rule="evenodd" clip-rule="evenodd" d="M136.215 164.662C135.736 165.028 135.258 165.393 134.779 165.759C124.243 158.013 111.5 153.305 98.4591 152.339C98.2774 151.748 98.2245 151.118 98.3053 150.505C110.094 150.595 121.835 154.165 131.678 160.653C133.373 161.771 135.044 163.003 136.215 164.662Z" fill="#00160A"/>
<path fill-rule="evenodd" clip-rule="evenodd" d="M170.896 389.581C185.838 381.621 198.83 370.031 208.438 356.092C210.361 353.303 212.148 350.424 213.935 347.547C214.667 346.369 215.398 345.191 216.13 344.012C217.35 347.742 214.865 351.575 212.51 354.715C201.948 368.796 190.479 383.574 173.975 389.695C172.953 390.074 171.657 390.361 170.896 389.581V389.581Z" fill="#00160A"/>
<path fill-rule="evenodd" clip-rule="evenodd" d="M241.875 205.131C242.938 204.71 244.135 205.187 245.132 205.749C247.288 206.967 249.261 208.712 250.151 211.023C251.041 213.334 250.6 216.26 248.662 217.802C247.654 218.604 246.124 218.413 245.049 217.704C243.973 216.995 243.247 215.878 242.552 214.793C241.124 212.563 239.633 210.022 240.184 207.431C240.391 206.462 240.953 205.497 241.875 205.131H241.875Z" fill="#FFB61D"/>
<path fill-rule="evenodd" clip-rule="evenodd" d="M45.9326 226.34C44.0156 225.906 42.35 224.485 41.619 222.661C40.8879 220.836 41.1118 218.659 42.1987 217.021C43.5402 215 45.9496 213.963 48.3074 213.394C50.7063 212.814 53.1945 212.606 55.6563 212.78C56.5947 212.846 57.5701 212.982 58.3459 213.514C58.9452 213.925 59.376 214.542 59.6969 215.194C60.7795 217.393 60.6681 220.138 59.4107 222.243C58.1533 224.347 55.7893 225.746 53.3393 225.835C50.853 225.925 48.3592 226.889 45.9326 226.34ZM49.0874 220.938C50.9258 220.841 52.7581 220.63 54.5702 220.305C55.3064 220.173 56.0956 219.991 56.5848 219.425C57.0739 218.859 57.0137 217.791 56.3094 217.539C53.615 216.574 50.4776 216.947 48.0841 218.516C47.5307 218.878 46.9567 219.463 47.1277 220.102C47.3272 220.848 48.3169 220.978 49.0874 220.938V220.938Z" fill="#00160A"/>
<path fill-rule="evenodd" clip-rule="evenodd" d="M177.162 169.246C177.473 169.266 177.601 169.705 177.446 169.976C177.312 170.208 177.064 170.338 176.813 170.441L158.908 177.439C158.193 177.719 156.959 177.57 157.179 176.834C157.267 176.539 157.587 176.388 157.874 176.274C164.229 173.734 170.662 171.39 177.162 169.246Z" fill="#00160A"/>
<path fill-rule="evenodd" clip-rule="evenodd" d="M235.083 193.334C232.923 193.442 230.802 194.11 228.938 195.206C227.447 196.082 225.563 195.64 223.898 195.173C222.29 194.722 220.681 194.271 219.072 193.82C218.971 193.332 219.554 193.009 220.029 192.861C224.737 191.396 229.671 190.371 234.582 190.813C239.493 191.256 244.408 193.312 247.522 197.135C243.608 195.151 239.465 193.116 235.083 193.334Z" fill="#00160A"/>
<path fill-rule="evenodd" clip-rule="evenodd" d="M215.96 205.556C216.153 209.354 214.569 213.206 211.76 215.77C211.027 216.44 210.095 217.057 209.114 216.901C208.121 216.744 207.394 215.797 207.213 214.808C207.032 213.819 207.294 212.804 207.639 211.86C208.711 208.93 210.627 206.314 213.098 204.409C213.724 203.926 214.585 203.477 215.26 203.888C215.797 204.215 215.928 204.928 215.96 205.556Z" fill="#FFB61D"/>
<path fill-rule="evenodd" clip-rule="evenodd" d="M338.136 365.495C334.101 364.305 329.689 361.4 329.934 357.201C330.103 354.291 332.495 352.047 334.833 350.307C338.046 347.916 341.493 345.841 345.11 344.122C347.567 342.955 350.44 341.545 350.915 338.867C353.691 323.21 365.599 309.551 380.691 304.544C395.784 299.537 413.427 303.329 425.215 314C427.553 316.116 430.434 318.677 433.416 317.652C439.409 315.592 446.108 314.193 451.979 316.58C454.147 317.461 456.335 319.26 456.227 321.598C456.175 322.705 455.606 323.716 455.01 324.651C451.308 330.46 445.957 335.206 439.748 338.19C436.676 339.666 434.66 342.741 433.437 345.923C432.213 349.105 431.633 352.498 430.533 355.724C426.164 368.543 413.435 377.593 399.987 379.199C386.54 380.805 372.796 375.608 362.498 366.812C361.323 365.808 359.862 364.682 358.394 365.167C351.882 367.319 344.714 367.435 338.136 365.495ZM358.638 353.648C359.31 353.973 360.085 353.983 360.831 353.974C376.981 353.785 392.453 347.9 407.525 342.094C414.063 339.577 420.6 337.059 427.137 334.541C428.471 334.027 429.949 333.374 430.454 332.036C430.785 331.157 430.608 330.174 430.38 329.263C428.381 321.298 422.652 314.516 415.507 310.467C408.362 306.419 399.917 304.974 391.725 305.551C380.536 306.339 369.381 311.065 362.155 319.643C354.929 328.222 352.226 340.822 356.662 351.124C357.094 352.127 357.654 353.172 358.638 353.648M428.353 344.548C409.515 353.48 389.402 359.719 368.817 363.017C367.382 363.247 366.764 365.158 367.327 366.497C367.891 367.837 369.197 368.691 370.453 369.421C378.043 373.833 386.631 376.762 395.409 376.889C404.187 377.016 413.15 374.174 419.632 368.253C426.114 362.332 429.809 353.206 428.353 344.548ZM333.305 358.842C333.804 360.361 335.358 361.257 336.851 361.83C342.703 364.077 349.221 363.5 355.432 362.656C380.501 359.253 405.049 352.034 427.969 341.324C437.152 337.033 446.473 331.826 451.91 323.271C452.382 322.529 452.836 321.699 452.747 320.825C452.559 318.985 450.269 318.259 448.421 318.173C443.842 317.958 439.306 318.978 434.836 319.992C433.277 320.345 431.332 321.193 431.477 322.785C431.636 324.532 434.086 324.859 435.781 324.408C437.476 323.957 439.574 323.337 440.752 324.637C442.363 326.415 440.144 329.052 438.108 330.321C422.72 339.91 405.312 345.673 388.093 351.35C384.03 352.689 379.957 354.031 375.766 354.891C372.169 355.63 368.51 356.008 364.857 356.385C361.44 356.738 358.023 357.091 354.606 357.444C352.874 357.623 351.073 357.793 349.437 357.2C347.8 356.606 346.389 355.005 346.616 353.279C346.867 351.368 348.818 350.262 350.276 349.003C351.734 347.743 352.726 345.195 351.156 344.079C345.812 346.253 340.796 349.229 336.328 352.878C334.487 354.381 332.564 356.584 333.305 358.842ZM433.9 330.276C435.321 329.379 436.741 328.481 438.162 327.583C438.596 327.309 439.095 326.862 438.912 326.382C438.752 325.961 438.198 325.889 437.748 325.885C436.45 325.874 435.009 325.917 434.072 326.814C433.152 327.695 433.072 329.309 433.9 330.276ZM349.682 352.991C349.577 353.105 349.47 353.224 349.424 353.372C349.226 354.006 350.209 354.343 350.84 354.133C351.47 353.923 352.182 353.516 352.736 353.882C353.535 354.409 354.655 353.316 354.363 352.405C354.07 351.493 352.911 351.102 351.985 351.344C351.059 351.587 350.331 352.287 349.682 352.991H349.682Z" fill="#00160A"/>
<path fill-rule="evenodd" clip-rule="evenodd" d="M237.652 231.985C236.579 232.272 235.263 232.16 234.603 231.267C234.089 230.572 234.126 229.606 234.377 228.778C234.745 227.561 235.575 226.441 236.746 225.944C237.916 225.446 239.423 225.69 240.224 226.679C240.958 227.586 240.97 228.953 240.404 229.974C239.838 230.996 238.779 231.684 237.652 231.985L237.652 231.985Z" fill="#FFB61D"/>
<path fill-rule="evenodd" clip-rule="evenodd" d="M233.404 223.772C233.166 224.371 232.694 224.928 232.06 225.047C231.009 225.246 230.139 224.206 229.748 223.21C229.374 222.256 229.193 221.227 229.22 220.202C229.228 219.899 229.31 219.525 229.604 219.45C230.751 219.159 232.045 219.56 232.827 220.448C233.608 221.337 233.84 222.672 233.404 223.772H233.404Z" fill="#FFB61D"/>
<path fill-rule="evenodd" clip-rule="evenodd" d="M411.522 371.821C410.834 372.132 409.775 372.226 409.557 371.503C412.009 370.035 414.461 368.568 416.913 367.101C415.632 369.158 413.731 370.823 411.522 371.821Z" fill="#E7EAEE"/>
<path fill-rule="evenodd" clip-rule="evenodd" d="M218.867 228.744C219.564 229.549 220.176 230.494 220.266 231.554C220.356 232.614 219.778 233.788 218.755 234.082C217.757 234.368 216.731 233.776 215.91 233.141C214.975 232.418 214.079 231.558 213.692 230.442C213.306 229.327 213.581 227.908 214.587 227.29C215.987 226.429 217.791 227.502 218.867 228.744H218.867Z" fill="#FFB61D"/>
<path fill-rule="evenodd" clip-rule="evenodd" d="M370.434 365.51C371.484 366.649 372.534 367.788 373.584 368.928C373.752 369.11 373.634 369.462 373.39 369.507C371.333 368.56 369.56 367.003 368.357 365.085C368.727 364.332 369.866 364.894 370.434 365.51L370.434 365.51Z" fill="#E7EAEE"/>
<path fill-rule="evenodd" clip-rule="evenodd" d="M68.7976 323.453C67.8078 322.319 66.8766 321.006 66.7889 319.504C66.7323 318.534 67.0377 317.575 67.456 316.698C69.12 313.211 72.616 310.778 76.3905 309.95C80.1649 309.121 84.1674 309.783 87.711 311.324C88.9984 311.884 90.2809 312.596 91.1005 313.736C92.382 315.518 92.2457 318.03 91.2864 320.004C90.327 321.979 88.6735 323.519 86.9953 324.934C85.4493 326.238 83.776 327.514 81.8004 327.947C80.7374 328.179 79.6373 328.155 78.5494 328.13C77.4591 328.104 76.3602 328.078 75.2962 327.838C72.7033 327.254 70.5455 325.456 68.7976 323.453ZM75.9817 316.779C75.0815 315.915 73.6541 315.024 72.7267 315.858C71.9324 316.573 71.3174 317.485 70.953 318.49C72.7619 318.552 74.5864 317.932 75.9817 316.779ZM78.6058 312.56C77.5072 312.824 76.3649 313.11 75.5018 313.839C76.1101 314.457 76.8125 315.041 77.6607 315.223C78.509 315.405 79.5237 315.06 79.8548 314.258C80.186 313.457 79.4493 312.357 78.6058 312.56M81.6106 320.063C81.5274 320.723 81.4467 321.411 81.6636 322.04C81.8805 322.669 82.4911 323.216 83.1507 323.128C84.0963 323.001 84.5107 321.764 85.416 321.463C84.2557 320.753 82.9545 320.274 81.6106 320.063ZM85.8835 314.674C86.6171 314.898 87.4763 314.264 87.4796 313.497C85.6591 312.856 83.4231 313.855 82.6849 315.638C83.8019 315.867 85.0249 315.485 85.813 314.661M79.5222 322.472C79.4329 322.25 79.3012 322.019 79.0761 321.937C78.3461 321.671 78.1588 323.029 77.4757 323.399C76.8315 323.748 76.9237 324.843 77.5638 325.199C78.2039 325.555 79.0763 325.217 79.4567 324.591C79.8371 323.965 79.7952 323.152 79.5222 322.472M74.1506 320.79C73.4921 321.353 72.291 321.096 71.8343 321.833C71.4352 322.476 72.0866 323.377 72.8415 323.438C73.5963 323.498 74.284 322.977 74.7347 322.368C74.9818 322.035 75.1905 321.622 75.0967 321.218C75.0028 320.813 74.4663 320.52 74.1506 320.79M87.7967 318.391C88.0398 318.146 88.2829 317.902 88.5261 317.657C87.8955 317.046 86.8776 317.189 86.0191 317.373C85.7538 317.43 85.4703 317.497 85.2878 317.697C84.864 318.164 85.3718 318.977 85.996 319.065C86.6202 319.153 87.2096 318.791 87.736 318.444L87.7967 318.391Z" fill="#00160A"/>
<path fill-rule="evenodd" clip-rule="evenodd" d="M407.439 181.643C404.911 179.352 402.383 177.061 399.856 174.77C399.032 174.023 398.34 172.428 399.393 172.072C400.484 174.129 402.92 175.113 405.233 175.381C407.546 175.649 409.901 175.369 412.208 175.69C414.393 175.993 416.463 176.825 418.538 177.574C429.984 181.707 442.161 183.488 453.67 187.44C454.345 187.672 455.117 188.02 455.261 188.719C455.422 189.5 454.688 190.165 453.989 190.549C450.401 192.523 445.551 191.852 442.635 188.977C441.229 187.591 438.923 188.556 437.022 189.09C433.52 190.073 429.795 189.23 426.257 188.387C422.512 187.493 418.767 186.6 415.022 185.707C413.717 185.396 412.398 185.08 411.199 184.478C409.791 183.772 408.606 182.701 407.439 181.643ZM449.646 189.71C450.241 189.441 449.563 188.589 448.948 188.369C442.9 186.211 436.758 184.1 430.366 183.487C427.05 183.169 423.777 182.416 420.655 181.254C416.471 179.696 412.222 177.359 407.821 178.109C408.2 180.501 410.51 182.152 412.845 182.798C415.179 183.444 417.653 183.363 420.032 183.822C423.017 184.397 425.77 185.803 428.67 186.717C431.57 187.631 434.86 188.013 437.549 186.594C439.454 185.589 441.808 186.22 443.739 187.174C445.67 188.128 447.513 189.406 449.646 189.71Z" fill="#00160A"/>
<path fill-rule="evenodd" clip-rule="evenodd" d="M603.761 215.936C605.667 214.424 607.574 212.913 609.48 211.401C610.027 210.967 610.617 210.515 611.313 210.454C612.334 210.365 613.211 211.131 613.937 211.855C616.441 214.352 618.819 216.976 621.059 219.713C621.604 220.38 620.918 221.329 620.276 221.903C618.161 223.791 616.046 225.678 613.931 227.566C613.396 228.044 612.823 228.541 612.117 228.667C611.02 228.863 610 228.119 609.134 227.418C607.301 225.934 605.468 224.45 603.635 222.966C602.535 222.076 601.34 221.003 601.3 219.588C601.256 218.063 602.565 216.884 603.761 215.936ZM613.351 216.171C612.803 215.56 612.163 214.903 611.343 214.864C610.705 214.834 610.12 215.192 609.582 215.537C608.622 216.153 607.661 216.769 606.701 217.385C606.324 217.627 605.931 217.885 605.719 218.28C605.179 219.286 606.067 220.44 606.888 221.234C608.092 222.399 609.297 223.565 610.501 224.73C610.871 225.087 611.311 225.471 611.823 225.421C612.184 225.386 612.485 225.138 612.755 224.895C613.785 223.967 614.729 222.945 615.573 221.845C616.17 221.067 616.707 219.916 616.052 219.185C615.152 218.181 614.251 217.176 613.351 216.171V216.171Z" fill="#FFB61D"/>
<path fill-rule="evenodd" clip-rule="evenodd" d="M481.248 114.159C488.761 128.661 486.504 146.071 484.058 162.219C498.232 169.414 510.458 180.403 519.119 193.732C521.811 197.876 524.242 202.9 522.697 207.594C520.822 213.289 514.143 215.654 508.247 216.747C493.485 219.484 478.15 219.086 463.55 215.588C458.038 214.267 451.749 212.637 447.09 215.865C426.541 230.104 398.075 231.343 375.768 220.055C353.461 208.767 337.81 185.808 334.161 161.075C333.464 156.353 329.251 153.089 325.501 150.135C312.664 140.026 301.601 127.672 292.963 113.802C289.354 108.006 286.083 100.908 288.647 94.58C291.61 87.2691 300.731 84.8611 308.613 84.5347C326.126 83.8096 343.828 88.693 358.493 98.2945C368.58 85.745 383.181 76.9037 398.976 73.7803C414.771 70.6569 431.639 73.2758 445.743 81.0415C452.749 84.8989 459.032 89.9407 465.029 95.2323C471.296 100.762 477.404 106.738 481.248 114.159ZM493.7 197.782C490.578 202.577 484.117 203.744 478.397 203.897C461.022 204.362 443.983 199.586 427.258 194.853C415.596 191.552 403.878 188.231 392.864 183.172C386.177 180.1 379.795 176.407 373.495 172.604C350.975 159.009 327.998 142.185 319.676 117.23C318.05 112.356 321.328 106.824 325.965 104.612C330.603 102.399 336.112 102.893 341.018 104.42C343.565 105.212 346.128 106.282 348.789 106.092C351.45 105.902 354.236 103.899 354.153 101.233C354.066 98.427 351.12 96.7032 348.532 95.6152C333.891 89.4599 317.783 85.9554 302.054 88.1565C298.724 88.6225 295.187 89.4762 292.964 91.9997C288.94 96.5692 291.287 103.71 294.208 109.053C306.503 131.542 325.632 149.762 347.021 163.883C368.41 178.005 392.093 188.267 415.99 197.534C444.925 208.754 475.782 218.773 506.486 214.257C509.557 213.805 512.688 213.178 515.317 211.529C517.946 209.88 520.002 206.999 519.865 203.899C519.772 201.805 518.724 199.885 517.64 198.091C509.3 184.291 497.167 172.808 482.929 165.24C482.236 167.873 481.544 170.506 480.851 173.139C485.185 175.97 489.633 178.911 492.555 183.184C495.477 187.457 496.524 193.444 493.7 197.782ZM479.6 162.887C480.407 162.124 480.729 160.993 480.994 159.915C483.844 148.324 484.038 136.088 481.559 124.413C477 125.515 472.442 126.616 467.883 127.718C465.715 128.242 463.521 128.77 461.29 128.765C458.581 128.758 455.943 127.969 453.268 127.543C447.286 126.59 441.181 127.459 435.187 128.329C432.87 128.665 430.576 127.669 428.526 126.539C414.117 118.592 404.741 103.192 389.873 96.1454C388.287 95.3941 386.626 94.7293 385.29 93.5925C382.575 91.2821 381.579 87.3521 378.707 85.2392C380.931 94.3084 388.023 101.36 395.506 106.946C402.99 112.532 411.25 117.246 417.563 124.126C420.798 127.651 425.711 129.1 430.451 129.745C435.191 130.389 440.05 130.393 444.645 131.725C448.142 132.74 451.544 134.529 455.181 134.342C458.56 134.169 461.588 132.313 464.806 131.269C469.514 129.741 474.587 129.969 479.53 130.214C480.529 130.263 481.802 130.545 481.948 131.534C482.123 132.72 480.516 133.263 479.318 133.278C473.504 133.351 467.054 131.997 462.346 135.408C458.706 138.046 453.72 137.853 449.366 136.734C445.012 135.616 440.844 133.689 436.376 133.187C433.203 132.831 429.97 133.207 426.819 132.692C418.02 131.254 411.939 123.487 405.068 117.808C399.788 113.443 393.702 110.147 388.342 105.883C382.981 101.618 378.199 96.0302 377.016 89.2831C376.71 87.5363 374.061 88.0318 372.558 88.9733C368.875 91.2803 365.149 93.6217 362.155 96.7712C359.161 99.9208 356.928 104.018 356.897 108.364C356.855 114.406 361.593 120.134 367.537 121.225C372.569 122.148 372.499 131.583 377.61 131.807C380.896 131.95 382.606 135.633 384.076 138.574C385.547 141.515 388.907 144.591 391.68 142.823C393.484 141.672 395.78 142.96 397.659 143.985C399.538 145.01 402.4 145.511 403.383 143.611C399.513 142.95 397.42 137.583 399.821 134.476C401.63 132.135 404.9 131.555 407.858 131.479C411.325 131.39 414.945 131.804 417.876 133.66C420.806 135.516 422.842 139.112 422.011 142.48C421.046 146.388 421.781 150.686 423.989 154.052C425.773 152.906 427.557 151.759 429.341 150.612C431.736 149.073 434.218 147.5 437.027 147.041C439.835 146.583 443.081 147.537 444.456 150.028C445.833 152.523 444.977 155.608 444.092 158.317C448.811 156.552 454.406 157.366 458.427 160.402C463.72 164.398 470.902 165.77 477.296 164.005C478.128 163.775 478.974 163.48 479.6 162.887ZM453.697 90.4805C452.797 89.9672 451.663 89.4738 450.779 90.0146C447.627 91.9426 443.585 91.5474 440.025 90.5579C436.465 89.5684 432.992 88.0425 429.301 87.8881C426.523 87.7719 423.766 88.4438 420.986 88.4447C414.38 88.4467 408.42 84.7337 402.872 81.1484C402.16 80.6882 401.412 80.188 401.057 79.4182C400.702 78.6484 400.948 77.5391 401.755 77.2816C407.41 83.3888 416.059 86.5821 424.326 85.615C426.597 85.3494 428.858 84.7896 431.138 84.9501C434.387 85.1786 437.336 86.8359 440.434 87.8411C443.532 88.8464 447.309 89.0596 449.68 86.8264C430.892 72.4801 403.273 70.9218 382.991 83.0638C382.677 83.2518 382.317 83.5668 382.445 83.9099C384.508 89.4554 390.307 92.4655 395.296 95.6479C406.597 102.858 415.581 113.125 426.082 121.459C429.285 124.001 433.235 126.492 437.196 125.475C442.863 124.021 448.855 123.848 454.596 124.975C457.12 125.47 459.63 126.216 462.202 126.172C467.495 126.081 472.398 122.663 477.679 123.022C479.216 123.126 480.447 121.542 480.523 120.004C480.599 118.466 479.85 117.018 479.078 115.685C473.029 105.249 464.175 96.4559 453.697 90.4805ZM370.209 198.198C374.921 201.052 381.191 199.02 386.346 200.963C388.847 201.906 391.062 203.776 393.729 203.956C396.073 204.114 398.356 202.915 400.699 203.094C402.926 203.265 404.845 204.637 406.747 205.807C414.304 210.455 423.449 212.466 432.258 211.419C434.575 211.143 436.693 212.609 438.914 213.324C441.135 214.04 444.309 213.413 444.617 211.101C431.954 207.498 419.748 202.474 407.574 197.46C382.373 187.081 356.789 176.48 335.524 159.432C336.784 163.564 338.045 167.696 339.305 171.827C340.875 176.974 342.452 182.141 344.752 187.006C353.852 206.258 373.643 218.87 394.364 223.782C403.518 225.952 413.29 226.785 422.228 223.849C416.275 223.355 411.922 218.072 406.38 215.843C400.66 213.543 393.621 214.475 388.823 210.603C382.993 205.898 372.805 207.499 369.04 201.022C368.336 199.81 369.011 197.472 370.209 198.198M357.435 135.296C357.49 138.3 359.188 141.224 361.771 142.761C363.002 143.494 364.439 143.95 365.416 144.998C366.574 146.24 366.83 148.237 366.022 149.731C364.664 152.242 361.221 152.633 358.392 152.253C356.836 152.043 355.269 151.685 353.916 150.889C352.119 149.832 350.846 148.102 349.428 146.574C346.368 143.277 342.44 140.793 338.149 139.443C338.481 142.716 341.135 145.21 343.666 147.312C354.68 156.459 366.689 164.34 378.963 171.712C382.971 174.119 387.013 176.475 391.183 178.589C406.467 186.336 423.202 190.694 439.788 194.998C445.784 196.553 451.779 198.109 457.775 199.664C458.603 199.879 459.486 200.093 460.299 199.827C461.177 199.54 461.784 198.758 462.332 198.015C466.25 192.698 469.981 187.243 473.516 181.665C473.686 181.396 473.863 181.094 473.808 180.78C473.734 180.361 473.29 180.129 472.898 179.961C466.456 177.19 460.013 174.418 453.57 171.647C452.412 171.149 451.207 170.641 449.948 170.684C448.446 170.735 447.095 171.555 445.678 172.054C436.851 175.162 427.754 165.664 418.552 167.365C415.519 167.926 412.846 169.665 409.926 170.656C407.006 171.648 403.35 171.697 401.292 169.401C400.1 168.071 399.699 166.237 398.999 164.594C398.299 162.951 397 161.291 395.215 161.218C394.34 161.183 393.503 161.542 392.643 161.707C389.253 162.359 386.018 159.955 383.862 157.258C381.707 154.561 380.043 151.368 377.238 149.354C374.046 147.061 369.752 146.587 366.783 144.011C363.774 141.401 362.645 137.063 359.511 134.603C358.967 134.176 358.102 133.846 357.658 134.376C357.45 134.623 357.429 134.973 357.435 135.296ZM440.539 159.379C439.904 157.346 442.278 155.442 442.084 153.321C441.846 150.708 438.225 150.073 435.698 150.777C433.271 151.454 431.002 152.689 429.117 154.361C426.945 156.288 423.999 158.963 421.677 157.22C421.067 156.761 420.683 156.068 420.352 155.38C418.251 151.019 417.563 145.99 418.414 141.224C418.837 138.856 417.011 136.551 414.801 135.602C412.591 134.653 410.094 134.738 407.691 134.838C406.166 134.902 404.513 135.015 403.363 136.018C402.213 137.021 402.103 139.253 403.51 139.845C405.555 140.705 406.696 143.271 405.966 145.365C403.593 147.719 399.745 147.383 396.44 146.883C393.88 146.495 391.32 146.108 388.76 145.72C386.892 145.438 384.916 145.106 383.489 143.869C380.699 141.448 380.735 136.225 377.229 135.062C376.288 134.75 375.254 134.825 374.307 134.531C369.566 133.06 370.332 124.228 365.441 123.386C357.688 122.051 352.16 113.208 354.357 105.654C347.172 114.96 341.553 125.472 337.807 136.616C342.811 137.613 347.495 140.155 351.057 143.808C352.841 145.637 354.433 147.798 356.767 148.84C359.101 149.881 362.495 149.135 363.135 146.661C360.191 146.352 357.769 144.143 356.155 141.663C355.047 139.96 354.196 137.999 354.276 135.97C354.357 133.941 355.558 131.865 357.488 131.232C360.055 130.391 362.75 132.294 364.286 134.516C365.822 136.739 366.755 139.398 368.66 141.313C370.587 143.25 373.264 144.188 375.702 145.419C379.394 147.283 382.686 149.933 385.295 153.142C387.111 155.376 388.911 158.079 391.749 158.562C394.347 159.003 397.239 157.407 399.534 158.703C402.947 160.629 401.831 167.14 405.586 168.262C407.238 168.756 408.933 167.819 410.482 167.064C417.71 163.542 426.594 163.637 433.745 167.311C435.637 168.283 437.49 169.514 439.608 169.715C443.025 170.039 446.119 167.618 449.533 167.27C453.473 166.868 457.084 169.227 460.553 171.137C464.411 173.262 468.517 174.934 472.761 176.109C473.506 176.315 474.31 176.504 475.038 176.247C475.935 175.93 476.474 175.029 476.875 174.166C477.974 171.804 478.609 169.227 478.733 166.624C471.407 167.804 462.981 168.689 457.428 163.768C454.723 161.369 450.929 160.252 447.355 160.8C444.829 161.187 441.301 161.819 440.539 159.379M326.623 123.971C328.915 127.701 331.207 131.431 333.5 135.161C333.78 135.617 334.257 136.141 334.746 135.926C335.035 135.8 335.161 135.467 335.259 135.168C338.15 126.375 342.23 117.975 347.353 110.267C347.713 109.725 346.98 109.127 346.375 108.886C344.58 108.171 342.78 107.455 340.92 106.934C337.282 105.915 333.432 105.66 329.692 106.19C327.079 106.561 324.215 107.56 323.112 109.957C322.605 111.06 322.55 112.316 322.632 113.527C322.752 115.323 323.156 117.099 323.823 118.77C324.554 120.601 325.591 122.291 326.623 123.971ZM489.942 198.317C492.621 196.812 493.476 193.168 492.649 190.208C491.822 187.248 489.701 184.843 487.548 182.651C485.184 180.243 482.701 177.953 480.111 175.791C475.812 184.064 470.912 192.025 465.462 199.591C465.115 200.073 465.418 200.801 465.928 201.107C466.438 201.413 467.067 201.415 467.662 201.402C474.14 201.268 480.606 200.552 486.957 199.268C487.985 199.06 489.028 198.831 489.942 198.317ZM380.911 203.803C384.744 204.122 387.751 207.093 391.21 208.775C397.672 211.917 405.885 210.592 411.763 214.722C413.573 215.994 415.049 217.722 416.969 218.82C419.047 220.009 421.487 220.368 423.87 220.601C428.696 221.072 434.238 220.833 437.43 217.183C437.611 216.976 437.785 216.753 437.863 216.49C438.256 215.158 436.247 214.565 434.861 214.643C423.839 215.264 412.213 213.571 403.298 207.062C400.962 205.356 397.745 207.047 394.854 207.11C391.872 207.174 389.199 205.445 386.455 204.278C382.632 202.65 378.37 202.067 374.25 202.608C375.844 204.298 378.596 203.611 380.911 203.803Z" fill="#00160A"/>
<path fill-rule="evenodd" clip-rule="evenodd" d="M215.429 183.623C213.968 182.45 213.406 180.524 212.544 178.861C209.645 173.267 202.964 170.47 196.663 170.429C190.362 170.387 184.293 172.609 178.386 174.802C168.97 178.297 159.555 181.791 150.14 185.286C141.365 188.543 131.727 192.577 127.897 201.117C124.255 209.24 127.141 218.65 130.054 227.062C137.07 247.323 144.086 267.583 151.102 287.844C151.995 290.424 153.639 293.525 156.359 293.29C177.014 291.509 197.727 307.158 201.657 327.515C214.673 324.666 227.247 319.807 238.796 313.162C241.968 311.337 245.17 309.274 247.123 306.179C250.692 300.524 249.172 293.185 247.533 286.703C244.522 274.791 241.511 262.88 238.5 250.968C230.32 250.685 221.914 249.646 214.77 245.651C201.907 238.46 195.581 221.461 200.461 207.557C205.341 193.652 220.764 184.353 235.362 186.367C249.961 188.38 262.243 201.378 263.591 216.053C264.939 230.728 255.341 245.67 241.49 250.701C243.996 260.086 246.502 269.47 249.008 278.854C250.795 285.547 252.597 292.359 252.354 299.282C251.971 310.195 246.582 320.237 241.058 329.656C224.481 357.919 203.615 386.241 172.965 397.825C161.727 402.072 149.704 403.827 137.735 404.864C131.488 405.406 125.148 405.756 118.984 404.599C111.978 403.284 105.476 400.074 99.2882 396.535C51.0423 368.936 16.8922 317.987 9.69679 262.873C8.93876 257.066 8.45436 251.182 6.76989 245.574C5.23739 240.472 2.73779 235.694 1.31572 230.56C-1.72164 219.594 0.581876 207.279 7.37738 198.153C10.9997 193.288 11.7159 186.931 13.6999 181.2C15.5986 175.715 18.7498 170.667 22.8441 166.553C27.3325 162.043 32.8591 158.71 38.5023 155.771C67.4734 140.68 101.251 134.995 133.566 139.771C165.88 144.547 196.569 159.76 219.936 182.587C219.68 184.442 216.889 184.795 215.429 183.623ZM172.076 315.504C169.856 312.83 167.678 310.016 166.577 306.719C165.477 303.423 165.623 299.519 167.77 296.786C166.656 295.582 164.683 295.284 163.264 296.107C161.844 296.931 161.122 298.79 161.614 300.356C162.527 303.259 160.592 306.729 157.643 307.48C159.418 303.978 159.998 299.883 159.265 296.026C159.213 295.75 159.138 295.45 158.91 295.286C158.426 294.937 157.798 295.475 157.492 295.986C155.666 299.035 155.759 302.933 156.903 306.297C158.047 309.661 160.131 312.612 162.186 315.511C167.351 313.828 173.58 317.298 174.868 322.575C175.984 327.148 180.55 330.294 185.217 330.898C189.885 331.502 194.585 329.996 198.811 327.923C191.255 326.905 183.288 325.718 177.338 320.951C175.364 319.37 173.692 317.449 172.076 315.504ZM17.237 226.087C13.3734 217.167 11.3692 207.539 10.2359 197.884C4.03363 206.774 1.5919 218.202 3.6192 228.85C5.6465 239.499 12.1164 249.23 21.1514 255.219C23.991 257.102 24.4989 260.961 25.1344 264.308C26.677 272.431 30.4566 279.93 34.1934 287.306C41.4139 301.559 48.7233 315.948 58.9542 328.22C65.262 335.786 73.9369 342.945 83.7437 342.016C94.3355 341.012 101.98 330.47 103.36 319.921C104.739 309.371 101.361 298.844 98.028 288.74C94.3801 277.683 90.7321 266.626 87.0841 255.569C86.649 254.25 86.2758 252.621 87.2369 251.619C93.1733 245.428 94.7752 236.051 93.4311 227.58C92.0869 219.109 88.1778 211.292 84.2792 203.652C82.9071 204.111 82.9648 206.036 83.1749 207.467C84.7474 218.178 79.1388 229.208 70.4218 235.626C61.7048 242.045 50.3574 244.215 39.5789 243.208C35.4938 242.827 31.3563 241.983 27.8428 239.865C22.7976 236.822 19.5785 231.494 17.237 226.087ZM131.719 360.263C127.144 357.042 123.537 352.644 120.217 348.141C114.879 340.902 110.119 333.238 105.996 325.244C103.912 331.147 100.181 336.459 95.3348 340.422C89.7831 344.962 81.6159 345.218 74.9263 342.633C68.2366 340.048 62.7801 335.041 57.9351 329.753C40.5925 310.826 29.0767 287.068 22.2011 262.334C21.4989 259.808 20.7196 257.079 18.6347 255.489C16.5498 253.899 12.758 254.454 12.2246 257.021C12.1104 257.57 12.1572 258.139 12.2045 258.698C13.0212 268.359 13.8513 278.094 16.5421 287.409C17.8371 291.892 19.5533 296.241 21.3053 300.565C27.7328 316.431 34.7723 332.243 45.0498 345.933C58.6473 364.044 77.2717 377.623 95.6054 390.92C102.451 395.885 110.637 401.115 118.763 398.773C122.068 397.82 124.899 395.689 127.483 393.419C136.365 385.617 143.306 375.623 147.514 364.575C141.986 365.44 136.295 363.483 131.719 360.263ZM89.8039 170.174C81.9614 164.249 73.3811 159.025 63.867 156.557C54.3529 154.09 43.7627 154.622 35.3067 159.632C32.3965 161.357 29.7956 163.566 27.4263 165.981C19.3865 174.174 13.8763 185.184 13.7038 196.661C13.6127 202.726 14.9775 208.714 16.537 214.576C18.0398 220.225 19.7784 225.926 23.0715 230.755C26.3646 235.585 31.4702 239.488 37.2917 240.016C46.4261 240.843 55.9368 239.707 64.0121 235.358C72.0873 231.009 78.5341 223.154 79.845 214.077C80.8027 207.444 79.0557 200.73 79.081 194.029C79.0932 190.775 79.5267 187.523 80.367 184.38C81.1298 181.526 82.2794 178.681 84.3565 176.581C86.4335 174.482 89.5969 173.265 92.4201 174.133C92.5652 172.484 91.1247 171.172 89.8039 170.174ZM214.139 326.444C204.233 329.511 194.326 332.578 184.42 335.646C177.611 337.754 170.698 339.88 163.572 340.08C156.447 340.281 148.957 338.314 143.932 333.258C146.655 339.861 151.355 345.633 157.267 349.639C158.769 350.657 158.181 352.967 157.431 354.62C153.178 363.993 148.89 373.429 142.979 381.855C137.067 390.282 129.369 397.733 119.895 401.758C122.136 402.696 124.524 403.284 126.945 403.493C130.388 403.79 133.846 403.325 137.271 402.861C152.29 400.826 167.652 398.685 181.101 391.696C192.968 385.529 202.643 375.944 212.115 366.503C219.894 358.749 228.003 350.419 230.572 339.74C233.089 329.283 244.875 322.529 245.994 311.832C236.924 319.32 225.374 322.965 214.139 326.444ZM95.0222 218.987C97.6561 226.737 98.3997 235.417 95.4081 243.036C93.6979 247.392 90.7804 251.474 90.7125 256.152C90.6807 258.341 91.2885 260.484 91.9393 262.573C97.5202 280.495 106.746 297.79 106.98 316.558C107.036 320.991 109.178 325.105 111.419 328.93C115.711 336.256 120.567 343.251 125.931 349.833C130.293 355.187 135.414 360.527 142.133 362.123C143.855 362.533 145.723 362.666 147.349 361.968C150.289 360.707 151.503 357.266 152.402 354.196C152.853 352.656 153.22 350.759 152.069 349.641C143.69 341.501 137.485 331.144 134.259 319.917C133.392 316.898 132.72 313.779 131.202 311.031C130.297 309.394 129.113 307.929 128.12 306.343C125.623 302.355 124.404 297.723 123.147 293.189C118.383 276.014 112.59 259.125 105.808 242.643C103.803 237.769 103.174 232.456 102.565 227.221C102.361 225.467 102.157 223.714 101.953 221.96C101.113 214.749 100.32 207.169 103.091 200.458C105.54 194.526 103.116 187.688 99.6984 182.256C97.7985 179.236 94.9922 176.114 91.4293 176.307C87.701 176.509 85.2274 180.221 83.8356 183.685C82.0775 188.062 81.1207 193.308 83.6321 197.3C87.9907 204.229 92.3883 211.237 95.0222 218.987ZM92.1677 168.726C98.4803 173.998 103.989 180.599 106.371 188.471C106.896 190.206 108.446 192.484 109.906 191.41C117.667 185.704 126.771 182.167 135.755 178.695C139.598 177.209 143.44 175.724 147.283 174.239C159.949 169.343 172.792 164.403 186.291 162.921C178.188 156.088 168.403 151.512 158.363 148.113C132.509 139.361 104.17 138.091 77.6373 144.496C75.1058 145.108 72.5868 145.788 70.142 146.685C64.8139 148.641 59.8129 151.632 54.2262 152.633C68.0857 154.116 81.4687 159.793 92.1677 168.726ZM116.883 247.822C120.513 249.439 125.788 244.638 128.158 247.828C123.859 249.652 119.402 251.103 114.853 252.159C113.921 252.375 113.922 253.697 114.157 254.624C115.95 261.706 118.536 268.586 121.852 275.094C125.336 273.044 130.02 274.237 133.042 276.921C136.064 279.605 137.75 283.462 139.102 287.271C140.266 290.549 141.253 293.89 142.055 297.274C143.316 302.592 143.56 309.367 138.922 312.259C137.231 313.313 137.988 315.902 138.936 317.656C141.163 321.776 143.442 325.945 146.689 329.32C155.308 338.279 170.627 339.729 180.775 332.546C172.559 330.617 165.111 325.586 160.255 318.685C156.903 313.922 154.804 308.41 152.766 302.955C143.883 279.17 135.513 255.194 127.663 231.049C125.763 225.203 123.879 219.279 123.443 213.148C123.006 207.017 124.149 200.569 127.81 195.631C132.389 189.456 140.055 186.556 147.293 183.965C163.489 178.167 179.686 172.368 195.882 166.57C187.162 163.031 177.308 166.071 168.405 169.121C151.373 174.955 134.292 180.81 118.096 188.671C115.2 190.076 112.29 191.577 109.966 193.804C102.932 200.547 103.148 211.818 105.244 221.333C105.354 221.834 105.51 222.392 105.957 222.642C106.33 222.85 106.79 222.776 107.21 222.696C110.69 222.034 114.171 221.372 117.651 220.71C121.066 220.061 123.718 223.62 125.059 226.828C126.96 231.374 128.149 236.218 128.57 241.128C128.66 242.177 128.67 243.36 127.945 244.123C127.22 244.886 125.549 244.579 125.571 243.527C125.635 240.42 125.349 237.305 124.718 234.262C123.988 230.744 122.665 227.127 119.849 224.897C117.033 222.667 112.392 222.461 110.157 225.273C115.955 231.04 118.574 239.821 116.883 247.822ZM244.778 240.014C245.097 235.339 248.533 231.033 253.021 229.683C255.717 228.872 257.595 226.283 258.264 223.548C258.933 220.813 258.582 217.937 258.065 215.169C256.412 206.332 252.591 197.211 244.901 192.554C236.563 187.505 225.815 188.952 216.625 192.205C212.62 193.622 208.457 195.579 206.353 199.27C205.059 201.541 204.704 204.209 204.373 206.801C203.697 212.102 203.019 217.454 203.508 222.776C203.996 228.097 205.755 233.461 209.386 237.382C211.915 240.112 215.79 242.104 219.328 240.95C222.101 240.046 224.645 242.623 227.271 243.893C230.855 245.627 235.086 244.909 238.995 244.154C241.51 243.669 244.603 242.569 244.778 240.014ZM138.211 296.601C137.557 294.478 136.903 292.354 136.248 290.23C134.863 285.733 133.328 280.998 129.802 277.881C128.394 276.637 126.263 275.707 124.694 276.74C123.1 277.788 123.138 280.105 123.425 281.991C124.557 289.451 126.751 296.749 129.921 303.596C130.987 305.898 132.202 308.202 134.085 309.901C134.552 310.323 135.084 310.715 135.705 310.818C137.029 311.036 138.189 309.877 138.784 308.674C140.616 304.969 139.428 300.551 138.211 296.601ZM194.575 318.938C188.45 318.167 182.72 314.675 179.226 309.586C177.918 307.68 176.902 305.525 176.624 303.23C176.46 301.874 176.544 300.446 175.965 299.209C175.387 297.972 173.783 297.057 172.64 297.805C172.617 301.527 172.659 305.486 174.669 308.62C175.361 309.699 176.258 310.629 177.151 311.55C179.95 314.437 182.783 317.336 186.106 319.6C189.429 321.864 193.315 323.479 197.336 323.493C197.133 321.579 196.484 319.179 194.575 318.938ZM169.96 296.747C168.644 297.901 168.405 299.848 168.477 301.596C168.722 307.511 171.571 313.181 175.829 317.294C180.087 321.407 185.672 324.015 191.479 325.168C192.903 325.45 194.439 325.637 195.758 325.032C191.833 324.502 188.036 323.036 184.774 320.788C183.536 319.935 182.377 318.974 181.224 318.009C178.178 315.458 175.117 312.816 172.99 309.461C170.615 305.713 169.53 301.163 169.96 296.747ZM113.834 243.87C113.659 238.1 111.549 232.406 107.922 227.915C105.984 229.712 106.394 232.825 106.957 235.406C107.761 239.1 108.686 243.018 111.386 245.664C111.671 245.943 112.002 246.218 112.4 246.256C113.452 246.356 113.866 244.925 113.834 243.87ZM181.537 309.72C184.527 313.464 188.852 316.12 193.544 317.093C193.83 317.152 194.171 317.19 194.376 316.981C194.535 316.819 194.548 316.563 194.523 316.337C194.355 314.837 192.997 313.731 191.585 313.197C190.174 312.663 188.638 312.531 187.218 312.02C183.777 310.784 181.347 307.167 181.504 303.515C181.572 301.92 180.348 300.368 178.78 300.064C177.867 303.417 179.367 307.005 181.537 309.72ZM169.418 318.15C167.723 317.389 165.768 317.44 164.017 316.817C163.349 316.579 162.709 317.483 162.963 318.146C163.218 318.808 163.99 319.127 164.699 319.157C165.408 319.186 166.11 319.001 166.82 318.997C169.359 318.985 171.505 321.755 170.859 324.21C170.611 325.153 171.661 326.162 172.593 325.876C173.701 323.012 172.22 319.407 169.418 318.15ZM188.372 307.61C186.881 306.139 185.377 304.658 183.626 303.508C183.17 307.493 186.93 311.406 190.93 311.108C191.297 310.724 190.906 310.109 190.527 309.735C189.809 309.027 189.091 308.318 188.372 307.61ZM167.558 322.312C167.945 322.899 169.138 322.581 169 321.891C168.142 320.914 166.866 320.316 165.566 320.283C165.741 321.252 166.519 322.086 167.474 322.327M155.155 296.499C155.115 296.008 154.542 295.641 154.079 295.809C153.852 296.52 154.033 297.346 154.537 297.896C155.185 297.903 155.616 296.993 155.201 296.496M140.168 326.97C140.167 327.702 140.575 328.42 141.204 328.794C141.583 328.065 140.965 327.036 140.143 327.028" fill="#00160A"/>
<path fill-rule="evenodd" clip-rule="evenodd" d="M596.255 239.327C595.753 238.08 593.629 238.659 593.226 239.942C592.823 241.225 593.473 242.572 594.025 243.798C599.628 256.258 595.168 272.408 583.964 280.225C581.107 278.479 579.956 274.622 576.941 273.168C575.55 272.498 573.955 272.443 572.412 272.401C567.827 272.276 563.241 272.15 558.656 272.025C556.983 271.979 554.969 272.116 554.157 273.58C552.386 276.769 547.652 278.042 544.785 275.786C541.918 273.53 542.409 268.137 545.805 266.805C546.607 266.49 547.517 266.379 548.179 265.828C548.773 265.333 549.06 264.57 549.323 263.843C551.102 258.916 552.881 253.988 554.66 249.061C554.995 248.132 555.335 247.177 555.311 246.19C555.263 244.179 553.744 242.525 552.185 241.253C550.626 239.981 548.868 238.8 547.989 236.991C547.11 235.181 547.625 232.502 549.551 231.921C559.656 228.874 571.015 226.94 580.422 231.724C582.033 232.543 583.639 233.571 585.444 233.622C587.25 233.673 589.247 232.195 588.918 230.419C588.455 227.92 584.065 226.866 584.846 224.448C585.014 223.926 585.418 223.52 585.808 223.134C589.798 219.19 593.789 215.246 597.78 211.302C598.194 209.064 594.94 207.842 592.844 208.728C590.748 209.615 589.239 211.566 587.134 212.43C582.877 214.177 578.319 210.945 574.949 207.812C562.887 196.598 552.189 183.917 543.167 170.139C542.753 169.506 542.325 168.811 542.38 168.057C542.45 167.089 543.276 166.373 544.038 165.771C550.673 160.531 557.309 155.291 563.944 150.051C565.547 148.785 568.056 147.576 569.376 149.135C581.595 163.566 593.815 177.997 606.034 192.428C606.617 193.117 607.219 193.845 607.4 194.728C607.772 196.544 606.258 198.186 604.724 199.227C603.19 200.268 601.392 201.205 600.69 202.921C599.988 204.636 601.519 207.165 603.234 206.462C612.015 200.154 621.194 193.675 631.842 191.803C633.856 191.449 636.046 191.293 637.84 192.278C641.83 194.469 641.268 200.345 639.751 204.637C636.984 212.468 632.882 219.826 627.674 226.297C626.637 227.586 625.485 229.135 625.923 230.73C626.542 232.986 629.674 233.263 631.915 232.595C634.156 231.926 636.612 230.799 638.698 231.857C639.621 232.324 640.295 233.157 640.94 233.965C651.847 247.622 662.754 261.279 673.661 274.936C666.126 280.862 658.455 286.616 650.657 292.192C649.887 292.743 649.027 293.318 648.083 293.24C646.966 293.148 646.148 292.185 645.462 291.298C635.002 277.766 624.542 264.234 614.082 250.702C612.744 248.971 614.004 246.382 615.727 245.033C617.45 243.685 619.64 242.874 620.968 241.136C622.297 239.398 621.944 236.156 619.781 235.827C618.551 235.64 617.421 236.496 616.532 237.367C614.049 239.799 611.994 242.845 608.841 244.307C604.262 246.43 598.142 244.008 596.255 239.327ZM585.762 275.867C592.145 268.508 596.148 258.251 593.359 248.918C591.024 241.104 584.142 235.121 576.354 232.703C568.566 230.285 560.029 231.122 552.328 233.803C551.635 234.044 550.826 234.456 550.799 235.189C550.782 235.641 551.084 236.034 551.371 236.383C562.168 249.529 572.966 262.674 583.763 275.82C584.029 276.144 584.352 276.496 584.771 276.498C585.176 276.5 585.497 276.173 585.762 275.867ZM635.762 203.312C631.674 202.941 628.419 198.594 629.213 194.567C613.515 201.605 599.409 212.168 588.237 225.251C592.582 231.081 597.459 236.515 602.786 241.464C603.335 241.974 603.945 242.505 604.692 242.579C605.502 242.659 606.251 242.181 606.917 241.714C619.713 232.754 629.994 220.241 636.301 205.949C636.728 204.983 636.814 203.408 635.762 203.312ZM578.316 191.481C579.194 190.759 580.155 189.855 580.079 188.72C580.024 187.883 579.408 187.205 578.826 186.601C576.232 183.907 573.637 181.213 571.043 178.519C570.306 177.754 569.087 177.629 568.069 177.935C567.05 178.242 566.184 178.905 565.342 179.555C564.691 180.058 564.017 181.061 564.666 181.567C568.172 184.296 571.32 187.485 574.002 191.027C574.491 191.672 575.041 192.379 575.837 192.528C576.749 192.698 577.599 192.071 578.316 191.481M587.7 207.502C588.736 207.714 589.717 207.013 590.543 206.352C591.248 205.788 592.021 205.085 591.985 204.182C591.961 203.571 591.562 203.047 591.18 202.569C588.564 199.291 585.948 196.012 583.332 192.733C583.151 192.506 582.947 192.264 582.663 192.204C582.378 192.145 582.093 192.285 581.839 192.426C580.789 193.013 579.799 193.707 578.889 194.494C578.52 194.815 578.144 195.184 578.053 195.665C577.947 196.225 578.255 196.771 578.559 197.253C580.677 200.611 583.207 203.708 586.072 206.456C586.544 206.909 587.059 207.37 587.7 207.502ZM551.29 265.549C551.23 265.705 551.168 265.867 551.171 266.034C551.179 266.514 551.728 266.836 552.205 266.786C552.682 266.737 553.089 266.434 553.469 266.142C556.847 263.546 560.226 260.95 563.605 258.354C564.133 257.948 564.711 257.444 564.708 256.779C564.706 256.259 564.342 255.82 563.998 255.431C562.514 253.749 561.029 252.067 559.544 250.384C559.312 250.121 559.062 249.846 558.727 249.743C557.81 249.461 557.103 250.546 556.757 251.441C554.935 256.143 553.113 260.846 551.29 265.549ZM568.351 261.296C568.147 261.057 567.931 260.81 567.639 260.695C567.22 260.531 566.749 260.677 566.327 260.834C561.79 262.519 557.719 265.443 554.674 269.205C555.367 269.587 556.201 269.582 556.992 269.567C562.376 269.462 567.76 269.358 573.144 269.253C573.734 269.242 574.552 268.956 574.4 268.385C572.384 266.022 570.367 263.659 568.351 261.296ZM553.977 162.58C553.612 162.945 553.222 163.365 553.214 163.881C553.21 164.229 553.384 164.552 553.553 164.856C555.439 168.25 557.325 171.643 559.212 175.037C559.619 175.769 560.044 176.523 560.709 177.033C561.375 177.543 562.35 177.747 563.054 177.29C564.032 176.656 565.01 176.022 565.988 175.387C566.711 174.919 567.475 173.863 566.776 173.36C562.734 170.45 559.44 166.509 557.295 162.014C557.009 161.416 556.202 161.229 555.571 161.429C554.94 161.629 554.446 162.113 553.977 162.58ZM571.787 196.84C572.598 196.036 572.637 194.691 572.188 193.642C571.738 192.592 570.897 191.77 570.076 190.977C567.833 188.811 565.59 186.644 563.348 184.478C562.723 183.874 562.075 183.255 561.266 182.938C560.457 182.62 559.437 182.675 558.836 183.303C557.718 184.469 558.761 186.361 559.802 187.597C561.82 189.992 563.837 192.387 565.855 194.782C566.618 195.688 567.412 196.618 568.474 197.142C569.536 197.665 570.946 197.673 571.787 196.84ZM575.87 168.255C577.433 168.229 578.435 166.371 578.172 164.831C577.91 163.29 576.806 162.048 575.749 160.897C573.575 158.531 571.401 156.165 569.228 153.799C568.518 153.026 567.577 152.18 566.563 152.453C565.671 152.694 565.216 153.76 565.34 154.676C565.464 155.591 566.013 156.385 566.546 157.14C568.632 160.094 570.719 163.047 572.805 166C573.568 167.081 574.547 168.277 575.87 168.255ZM617.313 249.266C617.253 249.627 617.464 249.971 617.666 250.275C619.726 253.382 621.786 256.488 623.845 259.594C624.46 260.521 625.655 261.023 626.747 260.815C627.839 260.606 628.764 259.698 628.993 258.609C629.324 257.04 628.314 255.533 627.357 254.246C625.637 251.933 623.918 249.62 622.198 247.308C621.663 246.588 620.57 246.493 619.747 246.85C618.923 247.206 618.306 247.904 617.717 248.581C617.54 248.784 617.357 249.001 617.313 249.266ZM634.397 255.963C634.995 255.554 635.625 255.105 635.887 254.431C636.331 253.291 635.56 252.069 634.824 251.091C633.092 248.787 631.344 246.496 629.581 244.216C628.859 243.283 628.034 242.288 626.877 242.058C625.857 241.855 624.735 242.372 624.227 243.279C623.719 244.186 623.864 245.413 624.569 246.176C627.278 249.109 629.528 252.464 631.214 256.082C631.728 257.186 633.393 256.65 634.397 255.963ZM546.123 169.32C546.321 170.25 546.956 171.017 547.571 171.743C550.051 174.674 552.531 177.605 555.011 180.535C555.204 180.763 555.401 180.994 555.649 181.161C556.245 181.561 557.112 181.496 557.642 181.01C558.171 180.525 558.312 179.667 557.965 179.038C555.809 175.13 553.652 171.222 551.496 167.315C550.831 166.11 549.233 165.518 547.944 165.999C546.656 166.48 545.836 167.974 546.123 169.32ZM646.305 274.144C645.942 274.546 645.557 275.006 645.57 275.547C645.581 276.009 645.881 276.407 646.168 276.769C648.184 279.31 650.209 281.843 652.243 284.369C652.581 284.788 652.937 285.221 653.426 285.445C654.614 285.989 655.933 285.1 656.936 284.262C657.378 283.893 657.863 283.427 657.808 282.853C657.776 282.515 657.557 282.228 657.347 281.961C655.002 278.982 652.656 276.002 650.31 273.023C649.819 272.398 648.858 272.323 648.126 272.634C647.394 272.945 646.837 273.553 646.305 274.144ZM560.747 161.335C562.264 165.454 565.048 169.297 569.042 171.117C570.025 171.565 571.449 171.745 571.95 170.788C572.456 169.822 571.498 168.775 570.702 168.031C567.536 165.071 565.649 161.027 563.838 157.09C563.271 155.857 561.213 156.201 560.57 157.395C559.927 158.589 560.278 160.062 560.747 161.335ZM640.275 260.76C639.627 259.877 638.946 258.963 637.977 258.452C637.008 257.941 635.663 257.965 634.961 258.806C633.843 260.144 635.064 262.101 636.195 263.427C638.384 265.989 640.376 268.72 642.147 271.587C642.834 272.699 644.544 271.952 645.552 271.119C646.078 270.685 646.66 270.097 646.505 269.433C646.448 269.191 646.298 268.984 646.152 268.784C644.193 266.109 642.234 263.435 640.275 260.76ZM634.936 236.042C634.857 237.026 635.419 237.934 635.96 238.76C638.213 242.205 640.482 245.669 643.291 248.679C644.971 248.571 645.935 246.517 645.592 244.869C645.249 243.222 644.05 241.911 642.975 240.617C641.536 238.886 640.242 237.037 639.108 235.094C638.631 234.276 637.597 233.827 636.674 234.037C635.751 234.247 635.013 235.099 634.936 236.042ZM637.593 275.932C638.328 276.438 639.416 276.346 640.056 275.724C640.751 275.05 640.845 273.933 640.543 273.014C640.241 272.094 639.612 271.325 638.995 270.578C637.213 268.419 635.431 266.26 633.649 264.102C632.984 263.296 632.276 262.458 631.302 262.081C630.328 261.703 629.016 261.978 628.6 262.936C628.161 263.947 628.881 265.058 629.563 265.923C631.969 268.979 634.376 272.035 636.783 275.091C637.025 275.398 637.272 275.71 637.593 275.932ZM658.559 260.873C658.43 260.371 658.078 259.962 657.736 259.572C655.218 256.696 652.699 253.82 650.18 250.944C649.977 250.712 649.757 250.469 649.462 250.382C649.169 250.296 648.857 250.378 648.563 250.46C647.852 250.658 647.105 250.877 646.592 251.408C646.079 251.939 645.922 252.889 646.464 253.391C648.511 255.288 650.342 257.42 651.908 259.731C652.819 261.076 653.755 262.575 655.286 263.12C656.816 263.665 658.964 262.446 658.559 260.873M586.563 188.906C585.893 189.805 586.335 191.085 586.881 192.065C588.516 194.999 590.881 197.449 593.217 199.863C593.817 200.483 594.446 201.122 595.255 201.421C596.064 201.719 597.109 201.569 597.582 200.848C598.232 199.855 597.489 198.566 596.769 197.623C594.954 195.246 593.138 192.869 591.322 190.492C590.73 189.716 590.105 188.913 589.229 188.483C588.352 188.053 587.147 188.123 586.563 188.906ZM664.232 275.401C665.031 276.385 666.24 277.478 667.39 276.944C668.392 276.48 668.794 274.932 669.898 274.927C667.962 272.432 666.025 269.937 664.088 267.443C663.308 266.438 662.469 265.388 661.282 264.928C660.096 264.468 658.474 264.881 658.078 266.09C657.711 267.206 658.499 268.341 659.239 269.253C660.903 271.302 662.568 273.352 664.232 275.401ZM591.68 181.323C589.733 178.276 587.538 175.388 585.123 172.697C584.488 171.99 583.838 171.296 583.187 170.602C582.655 170.034 582.084 169.442 581.335 169.233C580.435 168.982 579.393 169.403 578.919 170.208C578.446 171.013 578.585 172.129 579.241 172.793C581.805 175.388 584.368 177.982 586.931 180.577C587.604 181.258 588.317 181.964 589.233 182.244C590.149 182.524 591.322 182.211 591.68 181.323ZM603.613 195.798C603.85 195.61 604.106 195.39 604.137 195.09C604.17 194.773 603.941 194.495 603.727 194.26C600.942 191.194 598.158 188.129 595.373 185.063C594.821 184.455 594.108 183.79 593.303 183.954C592.522 184.112 592.097 185.034 592.203 185.824C592.309 186.613 592.797 187.291 593.27 187.933C594.423 189.498 595.577 191.064 596.73 192.63C598.085 194.469 599.502 196.364 601.501 197.469C602.205 196.912 602.909 196.355 603.613 195.798ZM644.831 255.895C644.154 255.15 643.256 254.333 642.282 254.588C641.406 254.817 640.965 255.874 641.105 256.769C641.245 257.664 641.808 258.427 642.353 259.151C643.92 261.232 645.487 263.313 647.054 265.395C647.871 266.479 649.02 267.692 650.338 267.366C651.503 267.078 652.055 265.631 651.792 264.46C651.529 263.288 650.691 262.344 649.884 261.455C648.199 259.602 646.515 257.748 644.831 255.895ZM640.592 278.843C639.834 280.034 640.693 281.567 641.555 282.686C642.902 284.434 644.32 286.129 645.803 287.764C646.39 288.411 647.036 289.079 647.884 289.291C648.804 289.522 649.849 289.107 650.362 288.309C650.875 287.511 650.817 286.388 650.225 285.646C648.84 283.912 647.454 282.178 646.069 280.443C645.369 279.567 644.63 278.66 643.607 278.202C642.585 277.743 641.193 277.897 640.592 278.843ZM573.024 174.188C572.386 175.123 573.222 176.338 574.011 177.151C576.766 179.99 579.522 182.829 582.277 185.667C582.859 186.267 583.566 186.916 584.398 186.83C585.447 186.722 586.021 185.425 585.771 184.401C585.521 183.377 584.724 182.591 583.961 181.863C581.542 179.553 579.122 177.244 576.703 174.934C576.184 174.439 575.643 173.93 574.965 173.699C574.286 173.468 573.429 173.596 573.024 174.188M631.362 237.939C630.45 237.951 629.83 238.987 629.913 239.896C629.996 240.804 630.561 241.587 631.106 242.318C633.066 244.95 635.026 247.582 636.987 250.213C637.369 250.727 637.771 251.257 638.338 251.552C638.906 251.848 639.689 251.832 640.101 251.343C640.694 250.639 640.183 249.581 639.666 248.82C637.524 245.666 635.382 242.513 633.24 239.359C632.779 238.681 632.182 237.928 631.362 237.939M662.837 278.361C660.376 275.392 657.915 272.423 655.454 269.454C655.157 269.097 654.832 268.72 654.383 268.601C653.507 268.368 652.677 269.313 652.671 270.219C652.664 271.126 653.203 271.936 653.734 272.67C655.374 274.937 657.149 277.106 659.046 279.163C659.72 279.894 660.491 280.653 661.478 280.776C662.465 280.898 663.592 279.98 663.272 279.038C663.185 278.783 663.009 278.569 662.837 278.361ZM581.128 209.53C581.75 210.203 582.478 210.927 583.394 210.94C584.31 210.953 585.131 209.71 584.444 209.104C581.655 206.641 579.178 203.823 577.093 200.741C576.534 199.914 575.944 199.018 575.016 198.649C574.088 198.279 572.76 198.797 572.738 199.795C572.724 200.387 573.151 200.886 573.552 201.321C576.078 204.057 578.603 206.794 581.128 209.53ZM632.146 196.453C632.429 198.587 634.479 200.335 636.63 200.277C636.983 200.268 637.359 200.204 637.614 199.96C637.864 199.721 637.946 199.36 638.016 199.021C638.342 197.439 638.364 195.295 636.837 194.767C636.208 194.55 635.503 194.718 634.86 194.549C634.41 194.431 633.995 194.15 633.529 194.151C632.514 194.154 632.012 195.447 632.146 196.453ZM550.915 269.863C550.289 269.191 549.343 268.89 548.425 268.859C547.924 268.843 547.403 268.905 546.975 269.167C546.589 269.404 546.309 269.788 546.129 270.205C545.314 272.089 546.986 274.589 549.033 274.435C551.081 274.281 552.314 271.366 550.915 269.863M590.74 237.72C591.618 237.674 592.399 236.905 592.459 236.028C592.488 235.61 592.366 235.182 592.121 234.841C591.388 233.822 589.547 233.985 589.004 235.117C588.461 236.249 589.486 237.787 590.74 237.72ZM599.551 208.842C599.893 209.053 600.261 209.272 600.663 209.259C601.065 209.247 601.48 208.89 601.394 208.497C599.834 207.061 598.274 205.625 596.714 204.19C596.309 205.1 596.616 206.201 597.226 206.989C597.836 207.778 598.703 208.318 599.551 208.842ZM624.404 235.823C625.012 236.349 625.985 235.448 625.82 234.661C625.656 233.875 624.898 233.379 624.205 232.972C623.512 232.565 622.753 232.073 622.581 231.288C621.576 232.771 623.049 234.65 624.404 235.823Z" fill="#00160A"/>
</svg>
