<svg width="20" height="20" viewBox="0 0 20 20" fill="none" xmlns="http://www.w3.org/2000/svg">
<g clip-path="url(#clip0_535_4044)">
<path d="M3.43084 6.03522L9.18173 2.82293C9.68647 2.541 10.3013 2.54078 10.8062 2.82236L16.5682 6.03547C17.1362 6.35223 17.4681 6.97048 17.4182 7.61894L16.7851 15.8496C16.7183 16.7179 15.9942 17.3885 15.1233 17.3885H4.87678C4.00589 17.3885 3.28182 16.7179 3.21503 15.8496L2.58183 7.61811C2.53198 6.97007 2.8634 6.35217 3.43084 6.03522Z" stroke="#1E1E1E" stroke-width="1.5"/>
<path d="M12.1643 12.0431C12.1643 13.2383 11.1953 14.2073 10.0001 14.2073C8.80482 14.2073 7.83587 13.2383 7.83587 12.0431C7.83587 10.8478 8.80482 9.87889 10.0001 9.87889C11.1953 9.87889 12.1643 10.8478 12.1643 12.0431Z" stroke="#1E1E1E" stroke-width="1.5"/>
</g>
<defs>
<clipPath id="clip0_535_4044">
<rect width="20" height="20" fill="white"/>
</clipPath>
</defs>
</svg>
