<svg width="47" height="47" viewBox="0 0 47 47" fill="none" xmlns="http://www.w3.org/2000/svg">
<path d="M16.867 44.6605H29.6651C40.3303 44.6605 44.5963 40.3945 44.5963 29.7293V16.9312C44.5963 6.26605 40.3303 2 29.6651 2H16.867C6.20184 2 1.93579 6.26605 1.93579 16.9312V29.7293C1.93579 40.3945 6.20184 44.6605 16.867 44.6605Z" stroke="#292D32" stroke-width="3" stroke-linecap="round" stroke-linejoin="round"/>
<path d="M23.2661 30.7957C27.3892 30.7957 30.7317 27.4533 30.7317 23.3301C30.7317 19.207 27.3892 15.8645 23.2661 15.8645C19.1429 15.8645 15.8005 19.207 15.8005 23.3301C15.8005 27.4533 19.1429 30.7957 23.2661 30.7957Z" stroke="#292D32" stroke-width="3" stroke-linecap="round" stroke-linejoin="round"/>
<path d="M35.288 12.6651H35.3146" stroke="#292D32" stroke-width="3" stroke-linecap="round" stroke-linejoin="round"/>
</svg>
