<svg width="47" height="47" viewBox="0 0 47 47" fill="none" xmlns="http://www.w3.org/2000/svg">
<path d="M27.5963 17.5712V23.7569H33.1422C33.5688 23.7569 33.7821 24.1835 33.7821 24.6101L32.9289 28.6629C32.9289 28.8762 32.5023 29.0895 32.289 29.0895H27.5963V44.6606H21.1972V29.3028H17.5711C17.1445 29.3028 16.9312 29.0895 16.9312 28.6629V24.6101C16.9312 24.1835 17.1445 23.9702 17.5711 23.9702H21.1972V16.9312C21.1972 13.3051 23.9702 10.5322 27.5963 10.5322H33.3555C33.7821 10.5322 33.9954 10.7455 33.9954 11.1721V16.2913C33.9954 16.7179 33.7821 16.9312 33.3555 16.9312H28.2362C27.8096 16.9312 27.5963 17.1445 27.5963 17.5712Z" stroke="#17191C" stroke-width="3" stroke-miterlimit="10" stroke-linecap="round"/>
<path d="M29.7293 44.6605H16.9312C6.26605 44.6605 2 40.3945 2 29.7293V16.9312C2 6.26605 6.26605 2 16.9312 2H29.7293C40.3945 2 44.6605 6.26605 44.6605 16.9312V29.7293C44.6605 40.3945 40.3945 44.6605 29.7293 44.6605Z" stroke="#17191C" stroke-width="3" stroke-linecap="round" stroke-linejoin="round"/>
</svg>
