<svg width="24" height="24" viewBox="0 0 24 24" fill="none" xmlns="http://www.w3.org/2000/svg">
<path d="M1.93333 19.0534V19.0532C1.93346 18.9444 1.95678 18.8368 2.00173 18.7376C2.04655 18.6388 2.11187 18.5505 2.19334 18.4788C2.81881 17.9111 3.36578 17.2626 3.81977 16.5503C4.32237 15.5661 4.62387 14.4916 4.70666 13.3896V10.1002V10.1H4.80666C4.80315 8.35711 5.43138 6.67199 6.57501 5.35675C7.71864 4.04152 9.30016 3.1853 11.0267 2.94668L1.93333 19.0534ZM1.93333 19.0534V19.96C1.93333 20.1634 2.0141 20.3584 2.15788 20.5021C2.30165 20.6459 2.49666 20.7267 2.69999 20.7267H21.2333C21.4367 20.7267 21.6317 20.6459 21.7754 20.5021C21.9192 20.3584 22 20.1634 22 19.96V19.0534V19.0532C21.9999 18.9444 21.9765 18.8368 21.9316 18.7376C21.8867 18.6386 21.8212 18.5502 21.7395 18.4784C21.1047 17.9124 20.5488 17.2638 20.0867 16.55M1.93333 19.0534L20.0867 16.55M19.2 10.1003C19.2045 8.31964 18.5586 6.59866 17.3836 5.26068C16.2281 3.94478 14.6391 3.08843 12.9067 2.84585V2.07335C12.9067 1.81079 12.8024 1.55897 12.6167 1.37331C12.431 1.18765 12.1792 1.08335 11.9167 1.08335C11.6541 1.08335 11.4023 1.18765 11.2166 1.37331C11.031 1.55897 10.9267 1.81079 10.9267 2.07335V2.86008L19.1 10.1M19.2 10.1003L19.1 10.1M19.2 10.1003V10.1H19.1M19.2 10.1003V13.3896M19.1 10.1V13.3934M19.2 13.3896C19.1999 13.3884 19.1998 13.3871 19.1997 13.3859L19.1 13.3934M19.2 13.3896C19.2828 14.4915 19.5842 15.5659 20.0867 16.55M19.2 13.3896V13.3934H19.1M19.1 13.3934L20.0867 16.55M18.8088 17.3467C19.2298 18.0138 19.7219 18.633 20.2765 19.1933H3.66348C4.21804 18.633 4.71022 18.0138 5.13123 17.3467L5.13145 17.3469L5.13489 17.3404C5.78474 16.122 6.16391 14.7777 6.24648 13.3993L6.24666 13.3993V13.3934V10.1H6.24672L6.2466 10.0966C6.22062 9.32873 6.34942 8.56346 6.62535 7.84637C6.90128 7.12929 7.31869 6.47506 7.85272 5.92266C8.38675 5.37025 9.02649 4.93095 9.73383 4.63093C10.4412 4.3309 11.2017 4.17629 11.97 4.17629C12.7383 4.17629 13.4988 4.3309 14.2062 4.63093C14.9135 4.93095 15.5532 5.37025 16.0873 5.92266C16.6213 6.47506 17.0387 7.12929 17.3146 7.84637C17.5906 8.56346 17.7194 9.32873 17.6934 10.0966L17.6933 10.0966V10.1V13.3934H17.6931L17.6935 13.3993C17.7761 14.7777 18.1552 16.122 18.8051 17.3404L18.8049 17.3405L18.8088 17.3467Z" fill="#1E1E1E" stroke="#1E1E1E" stroke-width="0.2"/>
<path d="M12 22.8534C12.42 22.8437 12.823 22.6858 13.1378 22.4077C13.4525 22.1295 13.6588 21.749 13.72 21.3334H10.2134C10.2764 21.7602 10.4923 22.1497 10.8209 22.4293C11.1496 22.7089 11.5686 22.8596 12 22.8534Z" fill="#1E1E1E"/>
</svg>
