<svg width="24" height="24" viewBox="0 0 24 24" fill="none" xmlns="http://www.w3.org/2000/svg">
<path d="M12 22.8534C12.42 22.8437 12.823 22.6858 13.1378 22.4077C13.4525 22.1295 13.6588 21.749 13.72 21.3334H10.2134C10.2764 21.7602 10.4923 22.1497 10.8209 22.4293C11.1496 22.7089 11.5686 22.8596 12 22.8534Z" fill="#1E1E1E"/>
<path d="M20.2498 19.2C19.6953 18.6397 19.2031 18.0205 18.7821 17.3534L18.7782 17.3472L18.7784 17.3471C18.1286 16.1287 17.7494 14.7844 17.6668 13.406L17.6665 13.4H17.6667V10.1067V10.1066C17.6669 9.51997 17.5785 8.93662 17.4045 8.37634L17.3291 8.13352L17.5497 8.25991C18.0047 8.52055 18.4988 8.70585 19.0129 8.80862L19.0802 8.82206L19.0919 8.88961C19.1611 9.2892 19.1972 9.69381 19.2 10.0993L19.2 10.1L19.2 13.3896C19.2828 14.4915 19.5842 15.5659 20.0867 16.55C20.5488 17.2638 21.1047 17.9124 21.7395 18.4784C21.8212 18.5502 21.8867 18.6386 21.9316 18.7376C21.9765 18.8368 21.9999 18.9444 22 19.0532V19.0534V19.96C22 20.1634 21.9192 20.3584 21.7754 20.5021C21.6317 20.6459 21.4367 20.7267 21.2333 20.7267H2.69999C2.49666 20.7267 2.30165 20.6459 2.15788 20.5021C2.0141 20.3584 1.93333 20.1634 1.93333 19.96V19.0534V19.0532C1.93346 18.9444 1.95678 18.8368 2.00173 18.7376C2.04655 18.6388 2.11187 18.5505 2.19334 18.4788C2.81881 17.9111 3.36578 17.2626 3.81977 16.5503C4.32237 15.5661 4.62387 14.4916 4.70666 13.3896L4.70666 10.1003L4.70666 10.1H4.80666C4.80248 8.36011 5.4279 6.67743 6.56747 5.36264C7.70704 4.04785 9.2838 3.18972 11.0067 2.94668L20.2498 19.2ZM20.2498 19.2H3.66348C4.21804 18.6397 4.71022 18.0205 5.13123 17.3534L5.13145 17.3535L5.13489 17.3471C5.78474 16.1287 6.16391 14.7844 6.24648 13.406L6.24666 13.406V13.4L6.24666 10.1L6.24666 10.0996C6.24321 9.34117 6.38939 8.58955 6.67683 7.88773C6.96426 7.18591 7.38731 6.54769 7.92175 6.00959C8.45619 5.4715 9.09152 5.04412 9.79137 4.7519C10.4912 4.45971 11.2417 4.30842 12.0001 4.30668C13.1095 4.3076 14.1941 4.63571 15.118 5.24996L15.3398 5.39745L15.2698 5.14041C15.1684 4.76783 15.1113 4.38455 15.1 3.99857V3.58002V3.51776L15.0441 3.49029C14.3645 3.15596 13.6363 2.93177 12.8867 2.82594V2.07335C12.8867 1.81079 12.7824 1.55897 12.5967 1.37331C12.411 1.18765 12.1592 1.08335 11.8967 1.08335C11.6341 1.08335 11.3823 1.18765 11.1966 1.37331C11.011 1.55897 10.9067 1.81079 10.9067 2.07335V2.86032" fill="#1E1E1E" stroke="#1E1E1E" stroke-width="0.2"/>
<path d="M20 7.33329C21.8409 7.33329 23.3333 5.84091 23.3333 3.99996C23.3333 2.15901 21.8409 0.666626 20 0.666626C18.159 0.666626 16.6666 2.15901 16.6666 3.99996C16.6666 5.84091 18.159 7.33329 20 7.33329Z" fill="#1E1E1E"/>
</svg>
