<svg width="20" height="20" viewBox="0 0 20 20" fill="none" xmlns="http://www.w3.org/2000/svg">
<g clip-path="url(#clip0_535_4047)">
<path d="M5.11844 10.082L4.34311 17.1034C4.2784 17.6894 4.82607 18.1555 5.39421 17.9978L9.57146 16.8388C9.8613 16.7584 10.1675 16.7579 10.4576 16.8374L14.7321 18.0089C15.2935 18.1628 15.8356 17.7085 15.7822 17.1289L15.1338 10.082M15.6386 7.30538C15.6386 10.4195 13.1141 12.944 9.99993 12.944C6.8858 12.944 4.3613 10.4195 4.3613 7.30538C4.3613 4.19125 6.8858 1.66675 9.99993 1.66675C13.1141 1.66675 15.6386 4.19125 15.6386 7.30538ZM9.9999 4.13763L10.9123 6.04963L13.0126 6.32649L11.4761 7.78503L11.8619 9.86814L9.9999 8.85758L8.13795 9.86814L8.52367 7.78503L6.98719 6.32649L9.08754 6.04963L9.9999 4.13763Z" stroke="#1E1E1E" stroke-width="1.5" stroke-linecap="round" stroke-linejoin="round"/>
</g>
<defs>
<clipPath id="clip0_535_4047">
<rect width="20" height="20" fill="white"/>
</clipPath>
</defs>
</svg>
