<svg width="24" height="25" viewBox="0 0 24 25" fill="none" xmlns="http://www.w3.org/2000/svg">
<path d="M13.2791 13.9047L19.0048 19.5004M14.9928 9.53107C14.9928 10.3196 14.8375 11.1003 14.5358 11.8288C14.234 12.5572 13.7917 13.2191 13.2342 13.7767C12.6767 14.3342 12.0148 14.7765 11.2863 15.0782C10.5578 15.38 9.77707 15.5353 8.98859 15.5353C8.2001 15.5353 7.41934 15.38 6.69087 15.0782C5.96241 14.7765 5.30051 14.3342 4.74297 13.7767C4.18542 13.2191 3.74316 12.5572 3.44142 11.8288C3.13968 11.1003 2.98437 10.3196 2.98438 9.53107C2.98438 8.74258 3.13968 7.96182 3.44142 7.23335C3.74316 6.50489 4.18543 5.84299 4.74297 5.28545C5.30051 4.72791 5.96241 4.28564 6.69087 3.9839C7.41934 3.68216 8.2001 3.52686 8.98859 3.52686C9.77707 3.52686 10.5578 3.68216 11.2863 3.9839C12.0148 4.28564 12.6767 4.72791 13.2342 5.28545C13.7917 5.84299 14.234 6.50489 14.5358 7.23336C14.8375 7.96182 14.9928 8.74258 14.9928 9.53107Z" stroke="#1E1E1E" stroke-width="1.5" stroke-linecap="round" stroke-linejoin="round"/>
</svg>
